<svg xmlns="http://www.w3.org/2000/svg" xmlns:xlink="http://www.w3.org/1999/xlink" width="500" zoomAndPan="magnify" viewBox="0 0 375 374.999991" height="500" preserveAspectRatio="xMidYMid meet" version="1.0"><defs><g/><clipPath id="9ede978b10"><rect x="0" width="115" y="0" height="17"/></clipPath><clipPath id="1cb7a4ffab"><path d="M 126.160156 92.285156 L 239.410156 92.285156 L 239.410156 222 L 126.160156 222 Z M 126.160156 92.285156 " clip-rule="nonzero"/></clipPath></defs><g fill="#000000" fill-opacity="1"><g transform="translate(67.06124, 253.872259)"><g><path d="M 19.546875 -30.03125 L 19.546875 -24.03125 L 9.03125 -24.03125 L 9.03125 -18.0625 L 18.75 -18.0625 L 18.75 -12.046875 L 9.03125 -12.046875 L 9.03125 0 L 2.1875 0 L 2.1875 -30.03125 Z M 19.546875 -30.03125 "/></g></g></g><g fill="#000000" fill-opacity="1"><g transform="translate(91.347295, 253.872259)"><g><path d="M 9.03125 -30.03125 L 9.03125 0 L 2.1875 0 L 2.1875 -30.03125 Z M 9.03125 -30.03125 "/></g></g></g><g fill="#000000" fill-opacity="1"><g transform="translate(106.203133, 253.872259)"><g><path d="M 9.03125 -18.640625 L 9.03125 0 L 2.1875 0 L 2.1875 -30.03125 L 9.03125 -30.03125 L 20.96875 -11.390625 L 21.046875 -11.390625 L 21.046875 -30.03125 L 27.890625 -30.03125 L 27.890625 0 L 21.046875 0 L 9.109375 -18.640625 Z M 9.03125 -18.640625 "/></g></g></g><g fill="#000000" fill-opacity="1"><g transform="translate(139.919404, 253.872259)"><g><path d="M 9.03125 -18.640625 L 9.03125 0 L 2.1875 0 L 2.1875 -30.03125 L 9.03125 -30.03125 L 20.96875 -11.390625 L 21.046875 -11.390625 L 21.046875 -30.03125 L 27.890625 -30.03125 L 27.890625 0 L 21.046875 0 L 9.109375 -18.640625 Z M 9.03125 -18.640625 "/></g></g></g><g fill="#000000" fill-opacity="1"><g transform="translate(173.635676, 253.872259)"><g><path d="M -1.09375 -30.03125 L 7.140625 -30.03125 L 13.390625 -20.421875 L 19.65625 -30.03125 L 27.890625 -30.03125 L 16.8125 -13.46875 L 16.8125 0 L 9.96875 0 L 9.96875 -13.46875 Z M -1.09375 -30.03125 "/></g></g></g><g fill="#000000" fill-opacity="1"><g transform="translate(204.075035, 253.872259)"><g/></g></g><g fill="#000000" fill-opacity="1"><g transform="translate(217.656528, 253.872259)"><g><path d="M 2.1875 -30.03125 L 11.5 -30.03125 C 14.320312 -30.03125 16.566406 -29.429688 18.234375 -28.234375 C 19.910156 -27.035156 20.75 -25.085938 20.75 -22.390625 C 20.75 -19.378906 19.5 -17.234375 17 -15.953125 C 21.269531 -15.191406 23.40625 -12.664062 23.40625 -8.375 C 23.40625 -5.851562 22.53125 -3.828125 20.78125 -2.296875 C 19.039062 -0.765625 16.640625 0 13.578125 0 L 2.1875 0 Z M 9.03125 -18.28125 L 9.578125 -18.28125 C 11.109375 -18.28125 12.25 -18.546875 13 -19.078125 C 13.75 -19.609375 14.125 -20.484375 14.125 -21.703125 C 14.125 -23.734375 12.609375 -24.75 9.578125 -24.75 L 9.03125 -24.75 Z M 9.03125 -5.28125 L 11.171875 -5.28125 C 14.523438 -5.28125 16.203125 -6.394531 16.203125 -8.625 C 16.203125 -9.957031 15.78125 -10.914062 14.9375 -11.5 C 14.101562 -12.082031 12.847656 -12.375 11.171875 -12.375 L 9.03125 -12.375 Z M 9.03125 -5.28125 "/></g></g></g><g fill="#000000" fill-opacity="1"><g transform="translate(245.547186, 253.872259)"><g><path d="M 0.84375 -15.03125 C 0.84375 -19.375 2.320312 -23.050781 5.28125 -26.0625 C 8.238281 -29.070312 11.804688 -30.578125 15.984375 -30.578125 C 20.179688 -30.578125 23.75 -29.078125 26.6875 -26.078125 C 29.625 -23.085938 31.09375 -19.40625 31.09375 -15.03125 C 31.09375 -10.644531 29.644531 -6.953125 26.75 -3.953125 C 23.863281 -0.953125 20.273438 0.546875 15.984375 0.546875 C 11.585938 0.546875 7.960938 -0.9375 5.109375 -3.90625 C 2.265625 -6.882812 0.84375 -10.59375 0.84375 -15.03125 Z M 8.234375 -15.03125 C 8.234375 -13.457031 8.472656 -12.019531 8.953125 -10.71875 C 9.441406 -9.425781 10.289062 -8.328125 11.5 -7.421875 C 12.71875 -6.523438 14.210938 -6.078125 15.984375 -6.078125 C 18.535156 -6.078125 20.457031 -6.953125 21.75 -8.703125 C 23.050781 -10.453125 23.703125 -12.5625 23.703125 -15.03125 C 23.703125 -17.488281 23.039062 -19.59375 21.71875 -21.34375 C 20.394531 -23.101562 18.484375 -23.984375 15.984375 -23.984375 C 13.503906 -23.984375 11.59375 -23.101562 10.25 -21.34375 C 8.90625 -19.59375 8.234375 -17.488281 8.234375 -15.03125 Z M 8.234375 -15.03125 "/></g></g></g><g fill="#000000" fill-opacity="1"><g transform="translate(281.120353, 253.872259)"><g><path d="M -1.09375 -30.03125 L 7.140625 -30.03125 L 13.390625 -20.421875 L 19.65625 -30.03125 L 27.890625 -30.03125 L 16.8125 -13.46875 L 16.8125 0 L 9.96875 0 L 9.96875 -13.46875 Z M -1.09375 -30.03125 "/></g></g></g><g transform="matrix(1, 0, 0, 1, 131, 258)"><g clip-path="url(#9ede978b10)"><g fill="#000000" fill-opacity="1"><g transform="translate(0.459911, 11.603774)"><g><path d="M 6.71875 -10.328125 L 6.71875 -8.265625 L 3.109375 -8.265625 L 3.109375 -6.203125 L 6.453125 -6.203125 L 6.453125 -4.140625 L 3.109375 -4.140625 L 3.109375 0 L 0.75 0 L 0.75 -10.328125 Z M 6.71875 -10.328125 "/></g></g></g><g fill="#000000" fill-opacity="1"><g transform="translate(8.804265, 11.603774)"><g><path d="M 6 -10.328125 L 10.15625 0 L 7.640625 0 L 6.875 -2.0625 L 2.9375 -2.0625 L 2.171875 0 L -0.34375 0 L 3.8125 -10.328125 Z M 6.0625 -4.125 L 4.921875 -7.140625 L 4.890625 -7.140625 L 3.734375 -4.125 Z M 6.0625 -4.125 "/></g></g></g><g fill="#000000" fill-opacity="1"><g transform="translate(19.863063, 11.603774)"><g><path d="M 0.75 -10.328125 L 3.953125 -10.328125 C 4.921875 -10.328125 5.691406 -10.117188 6.265625 -9.703125 C 6.847656 -9.296875 7.140625 -8.628906 7.140625 -7.703125 C 7.140625 -6.660156 6.707031 -5.921875 5.84375 -5.484375 C 7.3125 -5.222656 8.046875 -4.351562 8.046875 -2.875 C 8.046875 -2.007812 7.742188 -1.3125 7.140625 -0.78125 C 6.546875 -0.257812 5.722656 0 4.671875 0 L 0.75 0 Z M 3.109375 -6.28125 L 3.296875 -6.28125 C 3.816406 -6.28125 4.207031 -6.367188 4.46875 -6.546875 C 4.726562 -6.734375 4.859375 -7.035156 4.859375 -7.453125 C 4.859375 -8.160156 4.335938 -8.515625 3.296875 -8.515625 L 3.109375 -8.515625 Z M 3.109375 -1.8125 L 3.84375 -1.8125 C 4.988281 -1.8125 5.5625 -2.195312 5.5625 -2.96875 C 5.5625 -3.425781 5.414062 -3.753906 5.125 -3.953125 C 4.84375 -4.148438 4.414062 -4.25 3.84375 -4.25 L 3.109375 -4.25 Z M 3.109375 -1.8125 "/></g></g></g><g fill="#000000" fill-opacity="1"><g transform="translate(29.445802, 11.603774)"><g><path d="M 0.75 -10.328125 L 4.4375 -10.328125 C 5.4375 -10.328125 6.25 -10.0625 6.875 -9.53125 C 7.5 -9 7.8125 -8.242188 7.8125 -7.265625 C 7.8125 -6.503906 7.617188 -5.863281 7.234375 -5.34375 C 6.859375 -4.832031 6.34375 -4.472656 5.6875 -4.265625 L 9.25 0 L 6.25 0 L 3.109375 -4.078125 L 3.109375 0 L 0.75 0 Z M 3.109375 -5.75 L 3.375 -5.75 C 3.59375 -5.75 3.773438 -5.75 3.921875 -5.75 C 4.078125 -5.757812 4.25 -5.789062 4.4375 -5.84375 C 4.632812 -5.894531 4.789062 -5.960938 4.90625 -6.046875 C 5.019531 -6.140625 5.117188 -6.273438 5.203125 -6.453125 C 5.285156 -6.628906 5.328125 -6.84375 5.328125 -7.09375 C 5.328125 -7.34375 5.285156 -7.554688 5.203125 -7.734375 C 5.117188 -7.910156 5.019531 -8.039062 4.90625 -8.125 C 4.789062 -8.21875 4.632812 -8.289062 4.4375 -8.34375 C 4.25 -8.394531 4.078125 -8.425781 3.921875 -8.4375 C 3.773438 -8.445312 3.59375 -8.453125 3.375 -8.453125 L 3.109375 -8.453125 Z M 3.109375 -5.75 "/></g></g></g><g fill="#000000" fill-opacity="1"><g transform="translate(39.653992, 11.603774)"><g><path d="M 3.109375 -10.328125 L 3.109375 0 L 0.75 0 L 0.75 -10.328125 Z M 3.109375 -10.328125 "/></g></g></g><g fill="#000000" fill-opacity="1"><g transform="translate(44.758536, 11.603774)"><g><path d="M 6.25 -2.125 C 6.601562 -2.125 6.945312 -2.175781 7.28125 -2.28125 C 7.625 -2.394531 7.875 -2.503906 8.03125 -2.609375 L 8.265625 -2.765625 L 9.28125 -0.765625 C 9.238281 -0.734375 9.1875 -0.695312 9.125 -0.65625 C 9.070312 -0.613281 8.9375 -0.535156 8.71875 -0.421875 C 8.507812 -0.316406 8.285156 -0.222656 8.046875 -0.140625 C 7.804688 -0.0546875 7.488281 0.015625 7.09375 0.078125 C 6.707031 0.148438 6.300781 0.1875 5.875 0.1875 C 4.914062 0.1875 4.003906 -0.046875 3.140625 -0.515625 C 2.285156 -0.984375 1.59375 -1.628906 1.0625 -2.453125 C 0.539062 -3.285156 0.28125 -4.179688 0.28125 -5.140625 C 0.28125 -5.867188 0.4375 -6.566406 0.75 -7.234375 C 1.0625 -7.898438 1.472656 -8.46875 1.984375 -8.9375 C 2.492188 -9.414062 3.09375 -9.796875 3.78125 -10.078125 C 4.46875 -10.367188 5.164062 -10.515625 5.875 -10.515625 C 6.550781 -10.515625 7.171875 -10.429688 7.734375 -10.265625 C 8.296875 -10.109375 8.691406 -9.953125 8.921875 -9.796875 L 9.28125 -9.5625 L 8.265625 -7.5625 C 8.210938 -7.613281 8.125 -7.671875 8 -7.734375 C 7.882812 -7.804688 7.648438 -7.898438 7.296875 -8.015625 C 6.953125 -8.140625 6.601562 -8.203125 6.25 -8.203125 C 5.675781 -8.203125 5.164062 -8.109375 4.71875 -7.921875 C 4.269531 -7.734375 3.910156 -7.488281 3.640625 -7.1875 C 3.378906 -6.894531 3.179688 -6.570312 3.046875 -6.21875 C 2.910156 -5.875 2.84375 -5.523438 2.84375 -5.171875 C 2.84375 -4.390625 3.132812 -3.6875 3.71875 -3.0625 C 4.3125 -2.4375 5.15625 -2.125 6.25 -2.125 Z M 6.25 -2.125 "/></g></g></g><g fill="#000000" fill-opacity="1"><g transform="translate(55.429556, 11.603774)"><g><path d="M 6 -10.328125 L 10.15625 0 L 7.640625 0 L 6.875 -2.0625 L 2.9375 -2.0625 L 2.171875 0 L -0.34375 0 L 3.8125 -10.328125 Z M 6.0625 -4.125 L 4.921875 -7.140625 L 4.890625 -7.140625 L 3.734375 -4.125 Z M 6.0625 -4.125 "/></g></g></g><g fill="#000000" fill-opacity="1"><g transform="translate(66.488353, 11.603774)"><g><path d="M 0.09375 -8.265625 L 0.09375 -10.328125 L 7.359375 -10.328125 L 7.359375 -8.265625 L 4.90625 -8.265625 L 4.90625 0 L 2.546875 0 L 2.546875 -8.265625 Z M 0.09375 -8.265625 "/></g></g></g><g fill="#000000" fill-opacity="1"><g transform="translate(75.195468, 11.603774)"><g><path d="M 3.109375 -10.328125 L 3.109375 0 L 0.75 0 L 0.75 -10.328125 Z M 3.109375 -10.328125 "/></g></g></g><g fill="#000000" fill-opacity="1"><g transform="translate(80.300012, 11.603774)"><g><path d="M 0.28125 -5.171875 C 0.28125 -6.660156 0.789062 -7.921875 1.8125 -8.953125 C 2.832031 -9.992188 4.0625 -10.515625 5.5 -10.515625 C 6.9375 -10.515625 8.160156 -10 9.171875 -8.96875 C 10.179688 -7.9375 10.6875 -6.671875 10.6875 -5.171875 C 10.6875 -3.660156 10.1875 -2.390625 9.1875 -1.359375 C 8.195312 -0.328125 6.96875 0.1875 5.5 0.1875 C 3.988281 0.1875 2.738281 -0.320312 1.75 -1.34375 C 0.769531 -2.363281 0.28125 -3.640625 0.28125 -5.171875 Z M 2.828125 -5.171875 C 2.828125 -4.628906 2.910156 -4.132812 3.078125 -3.6875 C 3.242188 -3.238281 3.535156 -2.859375 3.953125 -2.546875 C 4.367188 -2.242188 4.882812 -2.09375 5.5 -2.09375 C 6.375 -2.09375 7.03125 -2.390625 7.46875 -2.984375 C 7.914062 -3.585938 8.140625 -4.316406 8.140625 -5.171875 C 8.140625 -6.015625 7.910156 -6.738281 7.453125 -7.34375 C 7.003906 -7.945312 6.351562 -8.25 5.5 -8.25 C 4.644531 -8.25 3.984375 -7.945312 3.515625 -7.34375 C 3.054688 -6.738281 2.828125 -6.015625 2.828125 -5.171875 Z M 2.828125 -5.171875 "/></g></g></g><g fill="#000000" fill-opacity="1"><g transform="translate(92.522142, 11.603774)"><g><path d="M 3.109375 -6.40625 L 3.109375 0 L 0.75 0 L 0.75 -10.328125 L 3.109375 -10.328125 L 7.203125 -3.921875 L 7.234375 -3.921875 L 7.234375 -10.328125 L 9.59375 -10.328125 L 9.59375 0 L 7.234375 0 L 3.125 -6.40625 Z M 3.109375 -6.40625 "/></g></g></g><g fill="#000000" fill-opacity="1"><g transform="translate(104.106319, 11.603774)"><g><path d="M 4.5625 -10.515625 C 5.113281 -10.515625 5.65625 -10.429688 6.1875 -10.265625 C 6.726562 -10.109375 7.128906 -9.945312 7.390625 -9.78125 L 7.765625 -9.53125 L 6.8125 -7.65625 C 6.738281 -7.707031 6.632812 -7.769531 6.5 -7.84375 C 6.363281 -7.925781 6.109375 -8.035156 5.734375 -8.171875 C 5.367188 -8.304688 5.03125 -8.375 4.71875 -8.375 C 4.320312 -8.375 4.015625 -8.289062 3.796875 -8.125 C 3.585938 -7.957031 3.484375 -7.734375 3.484375 -7.453125 C 3.484375 -7.304688 3.535156 -7.171875 3.640625 -7.046875 C 3.742188 -6.929688 3.914062 -6.800781 4.15625 -6.65625 C 4.394531 -6.519531 4.601562 -6.410156 4.78125 -6.328125 C 4.96875 -6.242188 5.253906 -6.117188 5.640625 -5.953125 C 6.304688 -5.671875 6.875 -5.285156 7.34375 -4.796875 C 7.820312 -4.304688 8.0625 -3.753906 8.0625 -3.140625 C 8.0625 -2.546875 7.953125 -2.023438 7.734375 -1.578125 C 7.523438 -1.140625 7.234375 -0.796875 6.859375 -0.546875 C 6.492188 -0.296875 6.082031 -0.113281 5.625 0 C 5.175781 0.125 4.691406 0.1875 4.171875 0.1875 C 3.710938 0.1875 3.265625 0.140625 2.828125 0.046875 C 2.398438 -0.046875 2.039062 -0.160156 1.75 -0.296875 C 1.457031 -0.429688 1.191406 -0.566406 0.953125 -0.703125 C 0.722656 -0.835938 0.554688 -0.945312 0.453125 -1.03125 L 0.28125 -1.171875 L 1.46875 -3.15625 C 1.5625 -3.070312 1.695312 -2.960938 1.875 -2.828125 C 2.050781 -2.703125 2.363281 -2.53125 2.8125 -2.3125 C 3.257812 -2.09375 3.65625 -1.984375 4 -1.984375 C 4.988281 -1.984375 5.484375 -2.320312 5.484375 -3 C 5.484375 -3.144531 5.445312 -3.273438 5.375 -3.390625 C 5.300781 -3.515625 5.175781 -3.632812 5 -3.75 C 4.820312 -3.875 4.660156 -3.972656 4.515625 -4.046875 C 4.378906 -4.117188 4.15625 -4.226562 3.84375 -4.375 C 3.53125 -4.519531 3.300781 -4.628906 3.15625 -4.703125 C 2.53125 -5.015625 2.046875 -5.398438 1.703125 -5.859375 C 1.359375 -6.328125 1.1875 -6.828125 1.1875 -7.359375 C 1.1875 -8.285156 1.523438 -9.039062 2.203125 -9.625 C 2.890625 -10.21875 3.675781 -10.515625 4.5625 -10.515625 Z M 4.5625 -10.515625 "/></g></g></g></g></g><g clip-path="url(#1cb7a4ffab)"><path fill="#000000" d="M 165.261719 171.9375 C 166.183594 173.753906 167.734375 175.035156 169.039062 176.527344 C 164.898438 169.304688 167.042969 159.519531 169.007812 156.023438 C 169.15625 159.40625 169.289062 162.476562 169.4375 165.878906 C 169.886719 163.722656 170.132812 161.847656 171.148438 160.171875 C 170.316406 165.195312 169.679688 170.136719 173.742188 174.25 C 172.421875 170.925781 172.425781 167.539062 173.171875 164.121094 C 173.910156 160.71875 175.328125 157.707031 178.164062 155.511719 C 174.867188 160.867188 174.757812 166.34375 177.320312 171.96875 C 176.535156 165.75 178.910156 160.457031 182.070312 155.386719 C 182.320312 156.523438 181.582031 157.519531 181.710938 158.640625 C 182.230469 158.550781 182.375 157.84375 183.144531 157.921875 C 182.160156 160.597656 181.417969 163.265625 181.867188 166.128906 C 182.027344 162.835938 184.332031 160.863281 186.351562 158.621094 C 186.875 159.117188 186.371094 159.628906 186.554688 160.1875 C 187.507812 158.730469 188.40625 157.285156 190.1875 156.417969 C 189.910156 157.734375 189.128906 158.6875 189 160.183594 C 189.738281 158.835938 190.417969 157.800781 191.289062 156.898438 C 191.894531 156.273438 191.308594 156.175781 190.859375 156.039062 C 189.101562 155.511719 187.859375 154.335938 186.894531 152.828125 C 186.609375 152.378906 186.207031 151.878906 186.660156 151.332031 C 187.035156 150.878906 187.554688 151.003906 188.0625 151.125 C 188.410156 151.207031 188.785156 151.265625 189.136719 151.230469 C 189.515625 151.195312 189.671875 150.886719 189.589844 150.523438 C 189.503906 150.167969 189.234375 150.152344 188.941406 150.257812 C 187.96875 150.605469 186.960938 150.589844 185.957031 150.511719 C 184.707031 150.410156 183.785156 149.726562 183.808594 148.449219 C 183.847656 146.433594 184.226562 144.425781 185.316406 142.683594 C 186.128906 141.386719 187.4375 140.699219 188.894531 140.296875 C 189.320312 140.179688 189.800781 140.191406 190.144531 139.8125 C 189.894531 139.015625 188.976562 139.445312 188.566406 138.96875 C 188.628906 138.496094 189 138.554688 189.289062 138.496094 C 189.464844 138.464844 189.707031 138.550781 189.816406 138.457031 C 190.40625 137.941406 190.574219 137.871094 191.148438 138.109375 C 191.398438 136.824219 190.421875 136.054688 189.753906 134.851562 C 191.179688 135.433594 191.820312 136.390625 192.625 137.703125 C 192.566406 136.238281 192.082031 135.234375 191.667969 133.863281 C 192.398438 134.511719 192.632812 135.085938 192.835938 135.644531 C 193.125 136.433594 193.386719 136.6875 194.125 135.980469 C 194.773438 135.363281 195.597656 134.929688 196.460938 134.511719 C 195.527344 136.0625 192.882812 136.527344 193.710938 139.253906 C 193.71875 138.507812 193.855469 137.953125 194.171875 137.46875 C 194.492188 136.976562 194.8125 136.46875 195.628906 136.09375 C 195.1875 136.925781 194.8125 137.550781 194.519531 138.210938 C 194.125 139.09375 194.140625 139.554688 195.421875 139.484375 C 199.464844 139.257812 202.859375 141.757812 203.582031 145.339844 C 203.660156 145.738281 203.773438 146.191406 203.664062 146.554688 C 203.09375 148.367188 202.613281 150.234375 201.777344 151.921875 C 201.273438 152.933594 201.375 153.363281 202.179688 154.019531 C 205.097656 156.410156 206.570312 159.472656 206.144531 163.308594 C 205.980469 164.808594 205.574219 166.25 205.039062 167.660156 C 207.515625 165.070312 207.898438 161.949219 207.195312 158.511719 C 208.230469 159.105469 208.410156 159.402344 210.011719 163.105469 C 209.640625 158.039062 207.292969 154.382812 203.664062 151.335938 C 208.183594 151.945312 212.113281 159.21875 212.007812 166.71875 C 212.394531 165.402344 212.46875 164.167969 212.351562 162.9375 C 212.234375 161.621094 212.070312 160.296875 211.785156 159.003906 C 211.515625 157.769531 211.0625 156.570312 210.65625 155.246094 C 212.464844 157.050781 213.335938 161.597656 212.859375 166.347656 C 213.515625 164.6875 213.648438 162.253906 213.152344 159.714844 C 212.714844 157.484375 211.824219 155.4375 210.488281 153.59375 C 209.152344 151.738281 207.421875 150.28125 205.324219 148.765625 C 210.878906 149.820312 214.46875 155.351562 215.125 163.59375 C 215.800781 161.4375 215.832031 159.445312 215.589844 157.453125 C 215.351562 155.464844 214.695312 153.578125 214.070312 151.679688 C 216.011719 154.242188 216.898438 157.214844 217.523438 160.28125 C 218.367188 150.816406 213.640625 144.464844 205.976562 139.738281 C 210.71875 139.742188 216.808594 146.644531 218.820312 154.238281 C 219.554688 150.226562 217.824219 144.40625 214.730469 140.546875 C 211.484375 136.503906 207.359375 134.203125 201.980469 134.296875 C 203.304688 132.832031 206.476562 132.683594 211.746094 133.777344 C 209.484375 132.082031 207.085938 131.308594 204.503906 131.101562 C 201.902344 130.894531 199.496094 131.71875 197.117188 132.664062 C 199.300781 130.761719 201.792969 129.671875 204.933594 129.816406 C 203.425781 128.917969 201.921875 129.21875 200.507812 129.019531 C 200.449219 128.394531 201.238281 128.25 201.128906 127.664062 C 200.847656 127.304688 200.316406 127.738281 199.96875 127.25 C 200.742188 126.539062 201.621094 125.84375 201.722656 124.25 C 200.289062 126.242188 198.753906 127.59375 196.609375 128.125 C 197.78125 126.597656 199.039062 125.167969 199.484375 123 C 198.027344 124.113281 196.597656 124.851562 194.875 125.6875 C 195.382812 124.007812 196.1875 122.65625 196.199219 120.976562 C 195.398438 121.921875 194.984375 123.082031 193.578125 123.402344 C 193.6875 122.316406 193.914062 121.335938 193.742188 120.289062 C 193.320312 120.726562 193.367188 121.480469 192.441406 121.722656 C 192.699219 119.425781 190.953125 118.046875 190.078125 116.246094 C 187.953125 111.871094 188.902344 107.734375 192.613281 105.371094 C 192.925781 105.792969 192.511719 106.027344 192.351562 106.292969 C 191.644531 107.46875 190.894531 108.621094 190.1875 109.792969 C 189.328125 111.214844 188.925781 112.640625 190.300781 113.980469 C 191.617188 111.171875 192.230469 110.4375 194.429688 109.28125 C 192.503906 111.230469 191.929688 113.570312 192.171875 116.476562 C 192.6875 115.445312 192.394531 114.472656 193.074219 113.792969 C 193.464844 114.210938 193.171875 114.734375 193.402344 115.113281 C 195.785156 113.316406 196.535156 109.902344 200.105469 108.832031 C 198.296875 110.894531 195.949219 112.15625 195.511719 114.964844 C 196.511719 114.582031 197.085938 113.714844 198.1875 113.417969 C 197.917969 114.261719 197.097656 114.652344 197.050781 115.363281 C 198.546875 115.28125 199.242188 113.980469 200.289062 113.179688 C 201.554688 112.210938 202.90625 111.476562 204.582031 111.789062 C 205.101562 111.882812 205.628906 112.03125 206.210938 112.839844 C 203.875 112.382812 202.007812 112.546875 201.183594 114.707031 C 204.617188 113.179688 208.597656 114.050781 210.34375 117.046875 C 207.667969 115.132812 204.96875 114.734375 201.953125 115.382812 C 202.554688 115.699219 203.160156 115.3125 203.664062 115.84375 C 202.933594 116.394531 201.90625 116.429688 201.242188 117.417969 C 203.738281 116.953125 206.117188 116.496094 208.425781 117.558594 C 206.703125 117.605469 204.945312 117.28125 203.304688 118.210938 C 205.625 118.648438 207.84375 119.261719 209.957031 120.964844 C 208.355469 120.839844 207.179688 120.039062 205.671875 120.140625 C 208.15625 121.742188 210.78125 122.957031 211.960938 125.804688 C 211.386719 126.046875 211.132812 125.390625 210.351562 125.5 C 212.117188 127.433594 213.21875 129.65625 214.863281 131.574219 C 215.449219 131.140625 214.742188 129.8125 216.050781 130.125 C 216.183594 130.15625 216.078125 129.722656 215.996094 129.523438 C 215.785156 129.03125 215.550781 128.550781 215.335938 128.089844 C 215.753906 127.722656 216.003906 128.449219 216.40625 128.089844 C 215.832031 126.511719 214.816406 125.160156 213.695312 123.398438 C 215.359375 123.972656 216.234375 125.054688 217.617188 125.898438 C 216.972656 123.847656 215.878906 122.355469 214.886719 120.816406 C 214.507812 120.226562 214.1875 119.707031 215.558594 119.871094 C 213.820312 118.53125 212.746094 117.027344 212.082031 115.132812 C 211.539062 113.578125 210.066406 112.691406 208.796875 111.714844 C 208.453125 111.453125 207.941406 111.359375 207.816406 110.835938 C 210.316406 110.152344 213.566406 112.355469 214.128906 115.316406 C 214.484375 117.1875 215.507812 118.453125 216.929688 119.53125 C 217.101562 119.660156 217.304688 119.746094 217.582031 119.898438 C 216.84375 118.40625 216.84375 118.40625 219.265625 118.4375 C 217.355469 117.351562 216.601562 115.679688 215.589844 114.171875 C 213.777344 111.484375 211.136719 109.886719 208 109.117188 C 207.644531 109.03125 207.28125 108.980469 206.925781 108.894531 C 206.273438 108.734375 205.296875 108.878906 205.078125 108.253906 C 204.820312 107.511719 206.007812 107.433594 206.332031 106.742188 C 205.84375 106.609375 205.472656 106.9375 205.0625 107.003906 C 204.738281 107.054688 204.296875 107.164062 204.273438 106.753906 C 204.222656 105.78125 203.417969 105.859375 202.667969 105.59375 C 204.933594 103.429688 203.617188 101.285156 202.65625 98.941406 C 203.667969 99.285156 204.0625 99.96875 204.523438 100.542969 C 205.828125 102.171875 207.363281 103.023438 209.546875 102.503906 C 210.730469 102.21875 211.972656 102.882812 213.210938 102.46875 C 213.679688 102.3125 213.867188 102.675781 213.691406 103.132812 C 213.488281 103.652344 213.136719 104.074219 212.742188 104.464844 C 212.550781 104.652344 212.273438 104.875 212.511719 105.152344 C 213.492188 106.300781 213.914062 107.804688 215.019531 108.894531 C 216.167969 110.023438 217.332031 111.105469 218.707031 111.949219 C 219.890625 112.675781 221.191406 113.089844 222.554688 113.332031 C 222.910156 113.394531 223.433594 113.394531 223.464844 113.789062 C 223.507812 114.320312 222.90625 114.265625 222.554688 114.417969 C 222.015625 114.65625 221.355469 114.46875 220.769531 114.953125 C 221.421875 115.617188 222.277344 116.074219 223.058594 116.011719 C 224.558594 115.890625 224.878906 117.25 225.605469 117.941406 C 225.9375 118.261719 226.226562 118.726562 226.726562 118.960938 C 226.921875 119.050781 227.246094 119.257812 227.039062 119.445312 C 225.875 120.476562 227.234375 120.597656 227.609375 120.863281 C 230.15625 122.660156 232.691406 124.464844 234.679688 126.90625 C 234.847656 127.113281 235.097656 127.277344 235.0625 127.710938 C 234.152344 127.492188 233.640625 126.601562 232.644531 126.296875 C 232.804688 127.121094 233.28125 127.621094 233.691406 128.125 C 235.605469 130.472656 236.167969 133.171875 235.820312 136.117188 C 235.773438 136.523438 235.8125 137.0625 235.433594 137.238281 C 234.839844 137.507812 234.984375 136.582031 234.496094 136.492188 C 234.570312 137.605469 234.941406 138.691406 234.542969 139.773438 C 234.414062 140.128906 234.246094 140.554688 233.84375 140.523438 C 233.296875 140.480469 233.539062 139.960938 233.519531 139.644531 C 233.484375 139.074219 233.511719 138.503906 233.386719 137.914062 C 233.132812 140.832031 232.175781 143.53125 231.078125 146.191406 C 230.71875 147.070312 231.328125 147.664062 231.707031 148.324219 C 233.023438 150.597656 232.378906 153.136719 230.035156 154.515625 C 230.164062 153.097656 230.671875 151.703125 229.722656 150.136719 C 229.761719 151.507812 229.851562 152.609375 229.652344 153.703125 C 229.347656 155.382812 228.691406 156.851562 227.378906 157.972656 C 227 158.292969 226.710938 158.621094 226.835938 159.132812 C 227.269531 160.925781 227.78125 162.675781 229.242188 163.960938 C 229.527344 164.210938 230.144531 164.296875 229.980469 164.804688 C 229.832031 165.265625 229.277344 165.101562 228.882812 165.132812 C 228.527344 165.160156 228.164062 165.140625 227.601562 165.140625 C 228.148438 165.867188 228.769531 166.132812 229.410156 166.289062 C 230.417969 166.539062 230.089844 166.953125 229.570312 167.347656 C 227.992188 168.53125 226.28125 168.578125 224.511719 167.832031 C 222.410156 166.953125 221.144531 165.246094 220.023438 163.089844 C 219.421875 164.816406 218.765625 166.296875 217.761719 167.589844 C 217.398438 168.054688 217.683594 168.457031 217.960938 168.828125 C 218.332031 169.324219 218.726562 169.796875 219.160156 170.34375 C 218.261719 170.582031 217.710938 169.804688 216.988281 169.917969 C 216.886719 170.152344 217.003906 170.328125 217.148438 170.40625 C 218.738281 171.300781 219.246094 172.851562 219.628906 174.480469 C 219.769531 175.089844 220.113281 175.40625 220.746094 175.5 C 222.828125 175.789062 224.378906 176.6875 224.730469 178.992188 C 224.808594 179.523438 225.238281 179.839844 225.742188 180.019531 C 226.085938 180.140625 226.59375 180.164062 226.742188 180.40625 C 227.894531 182.269531 230.039062 183.644531 229.796875 186.210938 C 229.675781 187.488281 230.222656 188.042969 231.289062 188.753906 C 232.792969 189.757812 234.34375 190.921875 235.339844 192.484375 C 236.335938 194.058594 237.039062 195.824219 237.871094 197.503906 C 237.988281 197.746094 238.195312 198.011719 238.011719 198.265625 C 237.8125 198.539062 237.507812 198.367188 237.25 198.300781 C 236.816406 198.179688 236.382812 198.046875 235.730469 197.855469 C 236.234375 199.800781 237.085938 201.371094 238.050781 202.917969 C 238.433594 203.53125 239.414062 204.167969 238.882812 204.886719 C 238.390625 205.550781 237.441406 204.960938 236.695312 204.820312 C 236.566406 204.796875 236.4375 204.777344 236.300781 204.753906 C 236.300781 204.851562 236.269531 204.945312 236.308594 204.992188 C 236.667969 205.472656 237.8125 205.546875 237.496094 206.234375 C 237.164062 206.957031 236.246094 206.398438 235.621094 206.269531 C 233.921875 205.929688 232.496094 205.023438 231.1875 203.800781 C 231.390625 205.0625 232.058594 206.160156 233.078125 207.175781 C 233.984375 208.070312 235.191406 208.53125 236.464844 209.5 C 233.089844 210.292969 230.449219 209.546875 227.957031 207.296875 C 228.476562 208.878906 229.433594 209.882812 230.632812 210.972656 C 229.273438 210.785156 228.6875 210.433594 226.898438 208.84375 C 227.636719 210.683594 228.855469 211.988281 230.292969 213.15625 C 226.40625 212.871094 223.863281 210.761719 222.222656 207.277344 C 222.074219 210.835938 223.300781 212.484375 227.246094 214.167969 C 225.59375 215.414062 222.535156 214.710938 218.347656 212.078125 C 218.441406 213.203125 219.335938 213.703125 220.09375 214.542969 C 219.003906 214.71875 218.320312 214.054688 217.277344 213.808594 C 218.121094 214.925781 219.058594 215.527344 220.039062 216.050781 C 220.988281 216.558594 221.972656 217 222.996094 217.496094 C 219.660156 219.375 214.492188 216.65625 210.160156 210.828125 C 210.09375 211.398438 210.324219 211.882812 210.613281 212.242188 C 212.21875 214.230469 212.882812 216.710938 214.144531 218.875 C 214.277344 219.097656 214.546875 219.332031 214.304688 219.601562 C 214.082031 219.847656 213.789062 219.65625 213.539062 219.578125 C 211.417969 218.902344 209.9375 217.472656 208.855469 215.578125 C 208.636719 215.191406 208.445312 214.785156 208.222656 214.347656 C 205.328125 219.578125 202.464844 222 199.019531 221.929688 C 202.734375 218.824219 204.953125 215.128906 204.828125 210.304688 C 203.867188 213.128906 202.390625 215.589844 199.917969 217.332031 C 197.53125 219.015625 194.964844 220.109375 191.910156 219.519531 C 194.382812 218.484375 196.914062 217.605469 198.957031 215.121094 C 197.003906 216.09375 195.445312 217.042969 193.550781 217.089844 C 195.871094 215.621094 198.027344 214.039062 199.109375 211.417969 C 199.320312 210.902344 199.660156 210.371094 199.347656 209.566406 C 197.964844 212.054688 196.050781 213.714844 193.378906 214.40625 C 192.816406 214.550781 192.726562 215.125 192.496094 215.558594 C 190.574219 219.167969 187.402344 220.777344 183.480469 221.160156 C 183.1875 221.1875 182.835938 221.277344 182.496094 220.785156 C 184.886719 219.484375 187.394531 218.253906 188.1875 215.097656 C 186.617188 216.09375 185.265625 217.226562 183.15625 217.507812 C 185.824219 215.222656 189.007812 213.699219 189 209.824219 C 188.242188 211.1875 187.582031 212.605469 186.539062 213.800781 C 182.902344 217.960938 178.167969 219.671875 172.816406 220.007812 C 172.472656 220.03125 172 220.136719 171.835938 219.722656 C 171.660156 219.277344 172.144531 219.113281 172.414062 218.914062 C 173.074219 218.433594 173.761719 218 174.40625 217.472656 C 172.191406 217.988281 170.171875 218.921875 168.277344 220.382812 C 168.742188 219.222656 170.953125 217.40625 172.933594 216.082031 C 174.710938 214.894531 177.179688 215.296875 178.878906 213.320312 C 172.136719 213.515625 167.757812 217.425781 163.71875 221.777344 C 163.375 221.539062 163.40625 221.355469 163.472656 221.1875 C 165.128906 217.035156 167.816406 213.851562 172.160156 212.449219 C 173.089844 212.148438 173.214844 211.304688 173.933594 210.960938 C 175.207031 210.351562 176.519531 209.84375 178.070312 209.375 C 176.425781 209.195312 175.136719 209.632812 173.890625 210.230469 C 170.746094 211.75 167.820312 213.558594 165.292969 216.027344 C 163.179688 218.097656 160.65625 219.589844 157.792969 220.433594 C 157.324219 220.574219 156.773438 220.898438 156.375 220.464844 C 155.984375 220.046875 156.316406 219.488281 156.464844 219.035156 C 157.195312 216.777344 158.660156 215.191406 160.980469 214.359375 C 159.335938 213.820312 157.886719 214.351562 156.597656 215.875 C 156.410156 216.09375 156.335938 216.5625 155.917969 216.386719 C 155.570312 216.242188 155.652344 215.835938 155.660156 215.527344 C 155.683594 214.246094 156.261719 213.15625 156.835938 212.054688 C 157.09375 211.550781 157.839844 210.605469 156.273438 211.023438 C 155.800781 211.148438 155.695312 210.886719 155.761719 210.5 C 155.917969 209.550781 155.96875 208.5625 157.222656 208.300781 C 158.125 208.113281 158.320312 207.523438 157.765625 206.785156 C 157.089844 205.875 156.4375 204.949219 155.9375 203.929688 C 155.378906 204.230469 155.605469 204.84375 155.25 205.160156 C 153.734375 203.675781 153.75 200.863281 155.253906 199.050781 C 155.785156 198.410156 156.453125 197.9375 157.148438 197.488281 C 158.46875 196.644531 158.96875 195.371094 158.886719 193.839844 C 158.875 193.570312 158.898438 193.253906 158.621094 193.101562 C 158.230469 192.882812 158.066406 193.253906 157.835938 193.457031 C 157.582031 193.675781 157.417969 194.199219 156.984375 193.910156 C 156.648438 193.683594 156.808594 193.238281 156.863281 192.878906 C 156.945312 192.347656 157.035156 191.820312 157.140625 191.171875 C 156.292969 191.632812 156.5 192.53125 156.027344 193.144531 C 155.199219 192.519531 155.183594 191.644531 155.214844 190.800781 C 155.265625 189.476562 155.820312 188.328125 156.558594 187.25 C 157.003906 186.597656 157.359375 185.90625 157.238281 185.078125 C 157.203125 184.859375 157.054688 184.460938 157.035156 184.46875 C 155.285156 184.902344 155.890625 183.332031 155.609375 182.671875 C 154.734375 180.601562 154.683594 180.5625 152.984375 181.898438 C 150.851562 183.574219 148.496094 184.722656 145.691406 184.644531 C 145.257812 184.632812 144.761719 184.757812 144.402344 184.183594 C 144.996094 183.691406 146.382812 183.492188 145.304688 182.210938 C 145.136719 182.011719 145.570312 181.808594 145.816406 181.699219 C 146.203125 181.527344 146.511719 181.257812 146.722656 180.890625 C 146.945312 180.496094 147.300781 180.046875 147.070312 179.628906 C 146.808594 179.148438 146.367188 179.964844 145.914062 179.574219 C 146.378906 178.542969 146.851562 177.460938 146.414062 175.953125 C 145.988281 177.089844 146.316406 178.242188 145.445312 178.90625 C 144.621094 179.535156 143.742188 179.964844 142.75 179.308594 C 142.742188 178.996094 142.878906 178.902344 143.0625 178.839844 C 144.753906 178.265625 145.171875 176.441406 143.800781 175.238281 C 143.097656 174.621094 142.496094 173.984375 142.039062 173.175781 C 141.707031 172.597656 141.144531 172.285156 140.535156 172.035156 C 138.570312 171.238281 137.457031 169.753906 137.304688 167.65625 C 137.238281 166.753906 136.871094 166.265625 136.117188 165.84375 C 135.105469 165.277344 134.355469 164.402344 133.804688 163.371094 C 133.445312 162.707031 133.453125 162.324219 134.386719 162.503906 C 134.6875 162.5625 135.050781 162.558594 135.328125 162.445312 C 135.933594 162.195312 136.335938 161.789062 135.511719 161.3125 C 134.660156 160.820312 134.054688 160.085938 133.371094 159.253906 C 132.277344 160.585938 132.816406 162.039062 132.9375 163.460938 C 130.730469 162.421875 129.304688 158.789062 129.976562 156.074219 C 130.335938 154.609375 130.722656 153.152344 130.421875 151.578125 C 130.207031 152.476562 130.003906 153.375 129.761719 154.261719 C 129.648438 154.660156 129.402344 155.144531 128.953125 155.066406 C 128.390625 154.964844 128.644531 154.402344 128.65625 154.023438 C 128.730469 151.214844 129.621094 148.636719 130.941406 146.191406 C 131.613281 144.949219 132.234375 143.691406 132.539062 142.273438 C 130.832031 145.496094 128.320312 148.0625 126.1875 150.917969 C 126.15625 146.917969 131.1875 140.074219 134.964844 138.757812 C 135.335938 138.628906 135.792969 138.285156 136.109375 138.628906 C 136.449219 138.996094 135.980469 139.378906 135.839844 139.738281 C 135.640625 140.238281 135.390625 140.726562 135.273438 141.304688 C 136.867188 139.992188 138.945312 139.171875 139.613281 136.480469 C 138.148438 137.40625 136.578125 137.007812 135.441406 137.507812 C 134.308594 138 133.253906 138.960938 131.957031 139.761719 C 132.078125 138.667969 132.949219 138.308594 133.34375 137.574219 C 132.714844 137.105469 132.054688 137.953125 131.292969 137.449219 C 132.355469 136.296875 133.699219 135.855469 135.105469 135.515625 C 136.503906 135.175781 138.050781 135.363281 139.53125 134.183594 C 138.589844 134.257812 137.90625 134.5 137.242188 134.296875 C 137.039062 134.230469 136.746094 134.097656 136.707031 133.9375 C 136.613281 133.585938 136.957031 133.507812 137.214844 133.449219 C 138.121094 133.234375 138.9375 132.835938 139.640625 132.226562 C 139.835938 132.054688 140.128906 131.847656 139.945312 131.554688 C 139.859375 131.410156 139.558594 131.359375 139.347656 131.34375 C 138.453125 131.277344 137.550781 131.246094 136.484375 130.511719 C 140.453125 129.765625 143.941406 128.667969 146.328125 125.507812 C 146.964844 125.675781 146.785156 126.082031 146.589844 126.460938 C 146.167969 127.269531 145.730469 128.070312 145.289062 128.867188 C 143.96875 131.238281 142.960938 133.703125 142.910156 136.484375 C 144.027344 131.613281 147.648438 127.789062 148.488281 122.777344 C 147.773438 123.691406 147.058594 124.609375 146.34375 125.523438 C 145.183594 126.195312 144.175781 127.15625 142.777344 127.515625 C 142.769531 126.878906 143.496094 126.847656 143.492188 126.316406 C 142.355469 126.269531 141.203125 126.945312 140.058594 126.339844 C 140.105469 126.179688 140.105469 126.050781 140.160156 126.027344 C 143.40625 124.390625 145.554688 121.714844 147.195312 118.574219 C 148.117188 116.808594 149.578125 116.050781 151.699219 116.046875 C 150.839844 117.304688 149.804688 118.273438 149.230469 119.667969 C 150.035156 119.355469 150.632812 118.167969 151.238281 118.644531 C 151.976562 119.222656 152.289062 118.84375 152.9375 118.246094 C 152.785156 119.691406 151.992188 120.628906 152.101562 121.84375 C 152.386719 121.484375 152.648438 121.15625 152.941406 120.789062 C 153.347656 122.238281 152.851562 123.605469 151.523438 124.550781 C 149.132812 126.25 147.4375 128.414062 146.722656 131.453125 C 149.632812 127.105469 151.855469 125.238281 155.753906 123.84375 C 155.984375 124.394531 155.613281 124.785156 155.386719 125.183594 C 154.179688 127.285156 152.390625 128.863281 150.578125 130.40625 C 149.410156 131.402344 148.375 132.507812 147.820312 133.941406 C 147.574219 134.582031 146.601562 135.355469 147.800781 136.101562 C 147.90625 136.164062 147.742188 136.699219 147.675781 137.007812 C 147.265625 138.894531 147.625 140.71875 148.097656 142.550781 C 148.441406 140.492188 149.253906 138.605469 150.121094 136.585938 C 149.183594 136.800781 148.945312 137.710938 148.210938 137.996094 C 148.390625 134.972656 150.339844 132.375 154.082031 130.269531 C 153.589844 131.621094 152.675781 132.5 152.011719 133.703125 C 152.914062 133.328125 153.320312 132.5 154.257812 131.9375 C 153.757812 133.605469 154.265625 134.183594 155.988281 133.535156 C 155.191406 134.796875 154.261719 135.453125 153.269531 135.957031 C 150.339844 137.4375 149.234375 139.96875 149.167969 143.039062 C 149.085938 146.875 149.148438 150.714844 149.148438 153.789062 C 149.605469 151.902344 150.027344 149.152344 151.464844 146.691406 C 149.757812 151.882812 151.476562 157.023438 151.550781 162.214844 C 152.761719 160.871094 153.753906 159.464844 153.65625 157.480469 C 152.457031 157.824219 152.269531 158.890625 151.675781 159.707031 C 151.925781 156.734375 152.363281 153.800781 152.273438 150.835938 C 152.179688 147.78125 152.625 144.84375 154.058594 142.082031 C 152.078125 143.183594 151.042969 145.066406 149.8125 146.8125 C 149.890625 145.332031 150.414062 143.992188 150.914062 142.644531 C 151.070312 142.226562 151.519531 141.671875 150.527344 141.613281 C 149.992188 141.582031 150.097656 141.074219 150.152344 140.746094 C 150.414062 139.175781 151.09375 137.851562 152.632812 137.203125 C 153.671875 136.761719 154.765625 136.449219 155.8125 136.082031 C 156.132812 136.511719 155.429688 136.746094 155.71875 137.117188 C 158.570312 136.980469 158.570312 136.980469 158.425781 138.390625 L 158.378906 138.457031 C 157.664062 140.289062 156.949219 142.117188 156.234375 143.949219 C 155.460938 145.929688 155.207031 147.976562 155.355469 150.125 C 157.183594 144.742188 159.757812 139.988281 165.21875 137.472656 C 160.386719 141.398438 158.265625 146.699219 157.457031 152.699219 C 159.351562 148.183594 161.9375 144.285156 166.605469 142.195312 C 161.675781 146.652344 158.800781 152.023438 158.957031 158.796875 C 161.082031 151.269531 164.933594 145.171875 172.523438 142.105469 C 167 145.773438 163.253906 150.773438 161.585938 157.191406 C 159.917969 163.597656 160.230469 169.742188 164.660156 175.125 C 162.167969 171.289062 161.058594 167.089844 161.433594 162.496094 C 162.148438 165.886719 162.933594 169.234375 165.273438 171.949219 Z M 194.546875 176.894531 C 193.539062 174.859375 192.867188 172.742188 192.324219 170.574219 C 192.183594 170.007812 192.144531 169.371094 191.554688 169.027344 C 189.703125 167.964844 187.847656 167.972656 185.917969 168.882812 C 184.128906 169.726562 183.03125 170.898438 183.359375 173.03125 C 183.46875 173.75 183.390625 174.496094 183.445312 175.222656 C 183.867188 180.570312 187.472656 185 192.308594 186.003906 C 195.109375 186.582031 197.507812 186.007812 199.675781 183.84375 C 203.433594 180.089844 203.164062 173.375 200.996094 169.78125 C 199.15625 166.734375 196.914062 166.296875 194.027344 168.332031 C 192.984375 169.066406 192.789062 169.742188 193.230469 170.953125 C 193.929688 172.851562 194.496094 174.824219 194.546875 176.894531 Z M 151.046875 166.503906 C 149.851562 168.84375 148.492188 170.640625 148.003906 172.875 C 147.503906 175.164062 148.089844 177.25 148.921875 179.351562 C 147.769531 173.566406 150.199219 168.9375 153.542969 164.585938 C 153.144531 168.21875 151.660156 171.601562 151.15625 175.210938 C 152.253906 172 153.515625 168.867188 154.882812 165.773438 C 155.304688 164.824219 155.613281 163.8125 155.113281 162.789062 C 154.691406 162.765625 154.8125 163.4375 154.355469 163.269531 C 154.0625 162.460938 154.550781 161.554688 153.875 160.414062 C 152.558594 163.566406 150.65625 165.980469 148.222656 167.980469 C 149.214844 167.824219 149.878906 167.164062 151.046875 166.503906 Z M 187.011719 184.882812 C 186.496094 185.46875 186.140625 185.925781 185.722656 186.328125 C 185.484375 186.558594 184.96875 186.664062 185.082031 186.171875 C 185.257812 185.433594 184.890625 184.851562 184.832031 184.195312 C 184.691406 182.597656 183.265625 180.855469 181.792969 180.46875 C 181.496094 180.386719 181.257812 180.359375 181.085938 180.636719 C 180.96875 180.828125 180.816406 181.210938 180.972656 181.242188 C 182.347656 181.519531 181.316406 182.257812 181.25 182.746094 C 181.121094 183.730469 180.878906 184.699219 180.617188 185.996094 C 181.296875 185.207031 181.71875 184.730469 182.121094 184.238281 C 182.453125 183.835938 182.875 183.933594 183.246094 184.082031 C 183.734375 184.273438 183.453125 184.707031 183.433594 185.039062 C 183.386719 185.773438 182.652344 186.207031 182.4375 187.023438 C 182.890625 186.746094 183.1875 186.535156 183.511719 186.375 C 183.824219 186.21875 184.183594 185.921875 184.515625 186.191406 C 184.792969 186.421875 184.546875 186.792969 184.527344 187.101562 C 184.488281 187.746094 184.363281 188.402344 184.613281 189.167969 C 185.105469 188.5625 185.433594 187.984375 186.003906 187.820312 C 187.753906 187.320312 186.976562 186.085938 187.011719 184.882812 Z M 166.445312 213.171875 C 168.339844 212.492188 169.359375 211.199219 169.5625 209.230469 C 169.777344 207.132812 170.746094 205.425781 172.394531 204.109375 C 172.835938 203.757812 173.25 203.378906 173.675781 203.011719 C 170.828125 203.75 169 205.539062 168.105469 208.289062 C 167.574219 209.914062 167.371094 211.65625 166.445312 213.171875 Z M 198.316406 143.667969 C 197.652344 142.925781 197.011719 142.664062 196.164062 142.886719 C 195.046875 143.183594 193.921875 143.125 192.777344 142.96875 C 191.929688 142.855469 191.039062 142.824219 190.191406 142.9375 C 188.894531 143.109375 188 143.828125 187.648438 145.425781 C 191.109375 143.699219 194.832031 145.210938 198.316406 143.667969 Z M 140.203125 157.855469 C 140.90625 157.214844 141.453125 156.5 141.796875 155.503906 C 141.15625 155.640625 140.832031 156.378906 140.332031 156.074219 C 139.828125 155.765625 140.234375 155.152344 140.222656 154.675781 C 140.195312 153.355469 140.230469 152.03125 140.222656 150.710938 C 140.21875 149.929688 140.195312 149.144531 139.765625 148.363281 C 137.871094 151.199219 138.0625 154.886719 140.203125 157.855469 Z M 202.535156 159.289062 C 202.226562 158.652344 201.933594 158 201.597656 157.375 C 200.933594 156.125 200.921875 156.128906 202.414062 155.957031 C 202.058594 155.421875 201.703125 154.953125 201.421875 154.445312 C 200.980469 153.636719 200.507812 153.574219 199.824219 154.191406 C 199.066406 154.875 198.121094 155.234375 197.167969 155.570312 C 195.964844 155.992188 195.972656 156.011719 196.886719 156.96875 C 196.867188 156.710938 196.726562 156.34375 196.847656 156.214844 C 197.152344 155.898438 197.421875 156.265625 197.65625 156.4375 C 198.664062 157.164062 199.425781 158.152344 200.308594 159.257812 C 200.371094 157.941406 199.710938 156.992188 199.507812 155.523438 C 200.808594 156.875 201.605469 158.113281 202.535156 159.289062 Z M 184.40625 198.628906 C 183.96875 201.816406 182.421875 203.875 179.1875 204.917969 C 182.617188 205.335938 183.449219 202.550781 185.113281 201.066406 C 185.59375 200.636719 185.152344 199.542969 184.40625 198.628906 Z M 158.378906 138.453125 C 158.480469 138.925781 158.769531 138.941406 159.0625 138.671875 C 159.53125 138.238281 159.9375 137.738281 160.40625 137.304688 C 161.941406 135.890625 163.492188 134.5 164.78125 133.332031 C 164.621094 133.902344 164.160156 134.730469 163.371094 135.414062 C 161.273438 137.238281 159.695312 139.476562 158.328125 141.875 C 158.085938 142.296875 157.910156 142.753906 157.703125 143.195312 C 158.523438 142.519531 159.058594 141.726562 159.605469 140.949219 C 162.074219 137.453125 165.128906 134.617188 168.957031 132.65625 C 169.308594 132.476562 169.941406 132.066406 170.042969 132.300781 C 170.453125 133.285156 170.992188 132.546875 171.449219 132.5 C 171.945312 132.445312 172.429688 132.296875 172.917969 132.1875 C 171.527344 133.0625 170.019531 133.636719 168.933594 134.894531 C 171.570312 133.492188 174.257812 132.265625 177.285156 131.796875 C 175.308594 132.15625 174.199219 130.019531 172.308594 130.300781 C 173.605469 129.441406 174.921875 128.945312 176.480469 129.535156 C 175.953125 128.683594 175.089844 128.546875 174.292969 128.082031 C 175.734375 128.007812 176.878906 128.667969 178.328125 128.96875 C 177.578125 127.882812 176.941406 127.007812 176.363281 126.097656 C 176.234375 125.898438 175.835938 125.367188 176.296875 125.34375 C 177.539062 125.289062 176.753906 124.601562 176.6875 124.238281 C 176.425781 122.800781 176.644531 121.484375 177.488281 120.039062 C 177 125.539062 178.621094 126.679688 182.207031 127.941406 C 181.925781 126.871094 180.851562 126.394531 180.28125 125.25 C 181.289062 125.742188 182.023438 126.105469 182.761719 126.46875 C 182.339844 125.507812 181.5625 125.023438 180.816406 124.519531 C 178.625 123.035156 178.617188 123.046875 179.367188 120.53125 C 179.386719 120.476562 179.292969 120.394531 179.238281 120.308594 C 179.035156 120.425781 178.832031 120.546875 178.578125 120.695312 C 178.863281 118.796875 179.800781 117.324219 181.023438 115.972656 C 179.996094 116.007812 179.65625 117.011719 178.804688 117.4375 C 178.972656 115.605469 178.660156 113.976562 178.296875 112.34375 C 177.828125 114.289062 177.828125 116.328125 176.992188 118.175781 C 176.496094 118.042969 176.789062 117.308594 176.214844 117.300781 C 175.679688 117.738281 176.175781 118.5625 175.5625 119.03125 C 175.097656 117.988281 174.726562 116.925781 173.714844 115.96875 C 173.746094 117.125 174.269531 118.015625 173.917969 119.058594 C 172.796875 117.644531 172.796875 116.160156 172.785156 114.566406 C 172.753906 109.589844 167.238281 105.871094 162.351562 107.613281 C 164.160156 107.726562 165.808594 107.6875 167.375 108.257812 C 170.210938 109.292969 171.804688 111.90625 171.945312 114.882812 C 172 116.125 170.753906 116.941406 171.375 118.167969 C 169.742188 115.777344 167.96875 114.800781 166.160156 115.328125 C 166.320312 115.882812 167.023438 115.519531 167.273438 116.007812 C 166.210938 116.125 165.097656 115.929688 163.902344 116.746094 C 165.773438 116.867188 167.460938 116.742188 168.964844 118.261719 C 167.609375 117.808594 166.628906 117.078125 165.410156 117.457031 C 166.832031 118.070312 168.179688 118.734375 169.140625 120.117188 C 166.261719 118.308594 163.824219 120.074219 161.289062 120.902344 C 161.058594 120.980469 160.652344 121.03125 160.691406 121.625 C 162.535156 120.699219 164.433594 120.445312 166.382812 120.546875 C 162.054688 121.523438 161.996094 121.546875 161.300781 122.660156 C 163.136719 122.039062 164.933594 121.390625 166.855469 122.058594 C 165.414062 122.125 163.96875 122.15625 162.535156 123.453125 C 163.730469 123.335938 164.421875 122.726562 165.3125 122.890625 C 162.386719 124.210938 161.1875 125.097656 160.652344 126.375 C 161.371094 125.953125 162.023438 125.535156 162.707031 125.179688 C 163.421875 124.808594 164.164062 124.480469 165.144531 124.476562 C 162.160156 126.417969 160.238281 128.683594 159.921875 130.527344 C 160.265625 130.730469 160.355469 130.066406 160.738281 130.300781 C 159.347656 131.738281 158.421875 133.398438 158.144531 135.425781 C 159.046875 134.597656 159.742188 133.585938 160.875 132.960938 C 159.546875 134.558594 159.648438 136.757812 158.433594 138.394531 C 158.425781 138.386719 158.378906 138.453125 158.378906 138.453125 Z M 159.730469 113.734375 C 160.070312 113.476562 160.773438 113.390625 160.578125 112.839844 C 160.394531 112.320312 159.777344 112.597656 159.351562 112.648438 C 157.308594 112.90625 155.277344 113.238281 153.324219 113.914062 C 152.316406 114.261719 151.300781 114.613281 150.457031 115.34375 C 151.898438 115.417969 153.253906 114.675781 154.929688 114.976562 C 154.132812 115.550781 153.527344 115.984375 152.925781 116.417969 C 152.957031 116.492188 152.988281 116.566406 153.027344 116.640625 C 153.828125 116.425781 154.632812 116.207031 155.738281 115.910156 C 154.628906 116.992188 153.679688 117.824219 153.679688 119.242188 C 155.773438 117.242188 158.457031 116.308594 161.03125 115.113281 C 160.460938 114.363281 159.703125 114.492188 159.121094 114.066406 C 159.347656 113.945312 159.558594 113.863281 159.730469 113.734375 Z M 154.300781 110.683594 C 150.625 109.984375 147.039062 113.734375 146.96875 116.214844 C 149.800781 114.316406 152.832031 113.144531 156.117188 112.625 C 156.886719 112.503906 156.675781 112.003906 156.207031 111.707031 C 155.597656 111.316406 154.925781 111.011719 154.285156 110.671875 Z M 165.890625 163.382812 C 165.71875 156.707031 167.425781 150.765625 171.101562 145.402344 C 166.742188 148.621094 163.367188 160.132812 165.890625 163.382812 Z M 174.960938 109.773438 C 173.5 107.71875 170.265625 106.355469 168.132812 107.097656 C 173.4375 108.058594 175.066406 111.539062 174.644531 116.519531 C 176.417969 114.527344 176.078125 111.347656 174.960938 109.773438 Z M 166.574219 101.390625 C 164.011719 101.164062 161.925781 102.421875 160.035156 104.105469 C 164.03125 102.335938 167.828125 102.097656 171.363281 105.238281 C 170.523438 102.886719 168.863281 101.589844 166.574219 101.390625 Z M 188.804688 97.144531 C 187.863281 95.1875 185.707031 93.628906 184.085938 93.832031 C 187.761719 96.285156 188.820312 99.734375 187.945312 104.035156 C 189.628906 102.449219 189.929688 99.496094 188.804688 97.144531 Z M 213.191406 152.796875 C 213.101562 149.023438 208.15625 145.125 204.738281 146.199219 C 208.277344 147.480469 211.199219 149.546875 213.191406 152.796875 Z M 155.691406 122.949219 C 157.371094 119.792969 159.824219 117.707031 162.875 116.242188 C 159.316406 115.589844 155.183594 119.433594 155.691406 122.949219 Z M 165.261719 171.9375 C 165.941406 171.425781 165.34375 170.925781 165.191406 170.488281 C 163.894531 166.757812 163.382812 162.945312 163.875 159.011719 C 164.019531 157.875 164.167969 156.742188 164.3125 155.605469 C 163.152344 158.105469 162.683594 160.707031 162.875 163.421875 C 163.082031 166.429688 163.980469 169.242188 165.273438 171.945312 C 165.273438 171.945312 165.261719 171.9375 165.261719 171.9375 Z M 154.285156 110.671875 C 155.535156 110.738281 156.640625 111.335938 157.832031 111.632812 C 159.492188 112.054688 161.082031 111.96875 162.722656 110.9375 C 160.253906 110.023438 154.835938 109.570312 153.476562 110.097656 C 153.550781 110.578125 154.066406 110.429688 154.300781 110.679688 C 154.300781 110.683594 154.285156 110.671875 154.285156 110.671875 Z M 192.8125 93.589844 C 194.382812 96.40625 195.214844 99.277344 194.726562 102.429688 C 197.003906 99.796875 195.886719 94.644531 192.8125 93.589844 Z M 186.4375 102.03125 C 185.757812 100.125 184.339844 99.078125 182.273438 98.765625 C 184.796875 100.671875 185.777344 103.195312 185.5 106.292969 C 186.628906 105.007812 186.996094 103.59375 186.4375 102.03125 Z M 187.101562 117.050781 C 188.492188 120.546875 188.847656 124.015625 186.910156 127.453125 C 190.042969 125.195312 190.0625 120.355469 187.101562 117.050781 Z M 180.027344 102.875 C 178.847656 101.757812 177.410156 101.296875 175.769531 101.496094 C 176.941406 102.246094 178.113281 102.914062 179.0625 103.910156 C 179.996094 104.886719 180.605469 106.105469 181.527344 107.125 C 181.714844 105.449219 181.230469 104.007812 180.027344 102.875 Z M 198.976562 103.550781 C 199.238281 102.253906 198.710938 100.914062 197.648438 100.332031 C 198.328125 103.265625 196.902344 105.25 194.457031 107.097656 C 196.828125 106.929688 198.601562 105.414062 198.976562 103.550781 Z M 187.109375 100.84375 C 187.292969 97.480469 184.519531 94.558594 180.949219 94.210938 C 183.582031 95.746094 185.46875 97.988281 187.109375 100.84375 Z M 177.820312 99.714844 C 179.199219 100.410156 180.347656 100.929688 181.269531 101.800781 C 182.261719 102.746094 182.71875 103.96875 183.261719 105.464844 C 184.550781 102.261719 181.730469 99.308594 177.820312 99.714844 Z M 177.519531 163.796875 C 178.292969 161.335938 178.84375 159.132812 179.796875 157.066406 C 180.753906 155.007812 182.101562 153.203125 183.585938 151.144531 C 180.179688 153.085938 177.253906 159.933594 177.519531 163.796875 Z M 167.5 137.707031 C 170.210938 136.246094 173.046875 136.164062 176.066406 136.242188 C 173.925781 134.007812 168.371094 135.453125 167.5 137.707031 Z M 187.410156 92.730469 C 188.574219 93.546875 189.679688 94.335938 190.585938 95.378906 C 191.515625 96.449219 192.078125 97.75 192.945312 99.152344 C 193.65625 96.21875 190.167969 92.3125 187.410156 92.730469 Z M 160.421875 106.003906 C 163.421875 105.074219 166.210938 104.816406 169.019531 105.914062 C 167.292969 103.460938 162.644531 103.53125 160.421875 106.003906 Z M 172.003906 98.511719 C 170.574219 97.917969 168.234375 98.171875 167.160156 99.191406 C 169.8125 98.980469 172.128906 99.355469 173.886719 101.421875 C 173.917969 99.914062 173.230469 99.019531 172.003906 98.511719 Z M 165.027344 140.152344 C 167.515625 138.988281 170.042969 138.558594 172.578125 138.144531 C 170.167969 136.945312 166.066406 138.027344 165.027344 140.152344 Z M 172.5 171.445312 C 172.453125 169.472656 172.074219 167.511719 172.226562 165.523438 C 172.378906 163.539062 172.679688 161.574219 173.121094 159.648438 C 171.121094 163.496094 171.160156 167.445312 172.5 171.445312 Z M 172.5 171.445312 " fill-opacity="1" fill-rule="nonzero"/></g></svg>